HIERARCHY
ROOT Hips
{
	OFFSET 0.00000 0.00000 0.00000
	CHANNELS 6 Xposition Yposition Zposition Zrotation Yrotation Xrotation 
	JOINT LHipJoint
	{
		OFFSET 0 0 0
		CHANNELS 3 Zrotation Yrotation Xrotation
		JOINT LeftHip
		{
			OFFSET 1.77779 -1.88989 0.48267
			CHANNELS 3 Zrotation Yrotation Xrotation
			JOINT LeftKnee
			{
				OFFSET 2.53442 -6.96327 0.00000
				CHANNELS 3 Zrotation Yrotation Xrotation
				JOINT LeftAnkle
				{
					OFFSET 2.71068 -7.44755 0.00000
					CHANNELS 3 Zrotation Yrotation Xrotation
					JOINT LeftToe
					{
						OFFSET 0.17992 -0.49431 2.22524
						CHANNELS 3 Zrotation Yrotation Xrotation
						End Site
						{
							OFFSET 0.00000 -0.00000 1.14687
						}
					}
				}
			}
		}
	}
	JOINT RHipJoint
	{
		OFFSET 0 0 0
		CHANNELS 3 Zrotation Yrotation Xrotation
		JOINT RightHip
		{
			OFFSET -1.58469 -1.88989 0.48267
			CHANNELS 3 Zrotation Yrotation Xrotation
			JOINT RightKnee
			{
				OFFSET -2.60386 -7.15404 0.00000
				CHANNELS 3 Zrotation Yrotation Xrotation
				JOINT RightAnkle
				{
					OFFSET -2.73334 -7.50979 0.00000
					CHANNELS 3 Zrotation Yrotation Xrotation
					JOINT RightToe
					{
						OFFSET -0.25618 -0.70384 2.21822
						CHANNELS 3 Zrotation Yrotation Xrotation
						End Site
						{
							OFFSET -0.00000 -0.00000 1.16381
						}
					}
				}
			}
		}
	}
	JOINT lowerback
	{
		OFFSET 0 0 0
		CHANNELS 3 Zrotation Yrotation Xrotation
		JOINT Chest
		{
			OFFSET 0.03410 2.01612 -0.22230
			CHANNELS 3 Zrotation Yrotation Xrotation
			JOINT Chest2
			{
				OFFSET 0.03465 2.03012 0.00937
				CHANNELS 3 Zrotation Yrotation Xrotation
				JOINT lowerneck
				{
					OFFSET 0 0 0
					CHANNELS 3 Zrotation Yrotation Xrotation
					JOINT Neck
					{
						OFFSET -0.00219 1.70459 0.20857
						CHANNELS 3 Zrotation Yrotation Xrotation
						JOINT Head
						{
							OFFSET 0.02518 1.72339 -0.22179
							CHANNELS 3 Zrotation Yrotation Xrotation
							End Site
							{
								OFFSET 0.00282 1.74122 -0.09823
							}
						}
					}
				}
				JOINT LeftCollar
				{
					OFFSET 0 0 0
					CHANNELS 3 Zrotation Yrotation Xrotation
					JOINT LeftShoulder
					{
						OFFSET 3.36358 1.00547 -0.37661
CHANNELS 3 Zrotation Xrotation Yrotation
						JOINT LeftElbow
						{
OFFSET 0 -5.065070 0.000000
CHANNELS 3 Zrotation Xrotation Yrotation
							JOINT LeftWrist
							{
OFFSET 0 -3.601960 0.000000
CHANNELS 3 Zrotation Xrotation Yrotation
								JOINT lhand
								{
									OFFSET 0 0 0
CHANNELS 3 Zrotation Xrotation Yrotation
									JOINT LFingers
									{
OFFSET 0 -0.450350 0.000000
CHANNELS 3 Zrotation Xrotation Yrotation
										End Site
										{
OFFSET 0 -0.363080 0.000000
										}
									}
								}
								JOINT LThumb
								{
OFFSET 0 0.000000 0.000000
CHANNELS 3 Zrotation Xrotation Yrotation
									End Site
									{
OFFSET 0 -0.368620 0.368620
									}
								}
							}
						}
					}
				}
				JOINT RightCollar
				{
					OFFSET 0 0 0
					CHANNELS 3 Zrotation Yrotation Xrotation
					JOINT RightShoulder
					{
						OFFSET -3.50159 0.80383 -0.71526
CHANNELS 3 Zrotation Xrotation Yrotation
						JOINT RightElbow
						{
OFFSET 0 -5.363940 0.000000
CHANNELS 3 Zrotation Xrotation Yrotation
							JOINT RightWrist
							{
OFFSET 0 -3.580350 0.000000
CHANNELS 3 Zrotation Xrotation Yrotation
								JOINT rhand
								{
									OFFSET 0 0 0
CHANNELS 3 Zrotation Xrotation Yrotation
									JOINT RFingers
									{
OFFSET 0 -0.663750 0.000000
CHANNELS 3 Zrotation Xrotation Yrotation
										End Site
										{
OFFSET 0 -0.535130 0.000000
										}
									}
								}
								JOINT RThumb
								{
OFFSET 0 0.000000 0.000000
CHANNELS 3 Zrotation Xrotation Yrotation
									End Site
									{
OFFSET 0 -0.543300 0.543300
									}
								}
							}
						}
					}
				}
			}
		}
	}
}
MOTION
Frames: 17
Frame Time: .0083333
4.4005 17.8934 -21.0986 -7.4261 -8.3796 -0.9440 0.0000 0.0000 0.0000 -7.1426 -13.4851 -25.1391 1.4216 7.5401 21.3258 0.0296 5.5814 -8.7893 0.0033 0.3734 1.0259 0.0000 0.0000 0.0000 34.6878 8.2468 6.8864 -1.8414 -8.5275 24.3282 -1.3436 3.2279 -21.0913 -0.0718 -1.7292 4.7577 4.4093 1.6048 11.5050 2.2616 2.8445 0.4725 -0.5691 1.3042 -5.8636 -2.3607 -3.5591 -15.9456 1.0359 -4.5703 19.9076 0.1788 -2.2129 8.9492 0.0000 -0.0000 0.0000 2.3613 5.7947 -22.7895 14.8193 -23.8938 3.1524 27.7601 8.0145 -26.7164 0.0 0.0 0.0 -7.1250 0.0 0.0 -2.6717 59.5897 0.9521 0.0000 -0.0000 0.0000 -2.9942 -8.1966 17.1599 -16.7487 -26.5253 -3.9745 -19.8736 -8.9392 -22.3876 0.0 0.0 0.0 7.1250 0.0 -0.0 5.6561 6.4229 5.013
4.4061 17.8851 -20.9321 -7.4978 -8.4123 -0.8605 0.0000 0.0000 0.0000 -6.9304 -13.6195 -25.0067 1.2034 6.9598 19.5963 0.0928 5.1191 -9.7639 0.0020 -0.2890 -0.7940 0.0000 0.0000 0.0000 34.7383 8.0157 7.4343 -1.8175 -8.4751 24.1668 -1.3650 3.2978 -21.2523 -0.0699 -1.7051 4.6914 4.5592 1.7400 11.5237 2.1577 3.0303 0.6244 -0.7890 1.3954 -5.6925 -2.0587 -3.6933 -16.5176 0.9396 -4.7992 19.9238 0.0569 -2.3029 9.0522 0.0000 0.0000 0.0000 2.583 5.5134 -23.7419 14.5596 -23.529 3.0479 28.9111 6.7417 -25.7352 0.0 0.0 0.0 -7.1250 0.0 0.0 -0.9867 58.8165 0.3333 0.0000 0.0000 0.0000 -2.8562 -8.7911 16.7122 -16.8109 -26.6078 -4.0023 -20.112 -9.1787 -22.649 0.0 0.0 0.0 7.1250 0.0 -0.0 5.5284 6.1152 4.9316
4.4107 17.8697 -20.7586 -7.3468 -8.3619 -0.7844 0.0000 0.0000 0.0000 -6.9219 -14.0256 -24.8164 1.0187 6.4213 18.0117 0.1075 5.0317 -9.9931 0.0164 -0.8260 -2.2702 0.0000 0.0000 0.0000 34.6012 7.8629 7.9224 -1.8307 -8.5041 24.2559 -1.3939 3.0888 -21.5236 -0.0465 -1.3912 3.8258 4.3096 1.7760 11.4468 2.1716 3.0394 0.6765 -0.6327 1.4091 -5.6073 -2.1354 -3.6547 -16.7728 0.9291 -4.7199 20.0794 0.0696 -2.2700 9.1531 0.0000 -0.0000 0.0000 2.4803 5.5595 -24.1594 14.4913 -23.4327 3.0208 29.7361 7.3391 -26.902 0.0 0.0 0.0 -7.1250 0.0 0.0 -0.4304 60.2776 0.1604 0.0000 -0.0000 0.0000 -2.981 -9.0614 16.6653 -16.9632 -26.8093 -4.0707 -20.2895 -9.2601 -22.5171 0.0 0.0 0.0 7.1250 0.0 -0.0 5.4061 6.2242 4.8101
4.4215 17.8465 -20.5810 -7.2831 -8.3922 -0.8793 0.0000 0.0000 0.0000 -6.8450 -14.5482 -24.4405 0.8750 5.9637 16.6792 0.0728 5.4297 -9.6587 0.0023 -0.3122 -0.8578 0.0000 0.0000 0.0000 34.5246 7.6112 8.5897 -1.8325 -8.5081 24.2684 -1.3917 3.0176 -21.5195 -0.0273 -1.0660 2.9304 4.1853 1.7455 11.4536 2.2419 2.9824 0.7797 -0.4792 1.3879 -5.5145 -2.2299 -3.5546 -16.6923 0.8911 -4.5460 19.9563 0.0972 -2.2012 9.0946 -0.0000 -0.0000 0.0000 2.2753 5.742 -24.1909 14.4770 -23.4125 3.0151 29.43 7.2976 -26.4912 0.0 0.0 0.0 -7.1250 0.0 0.0 -0.6454 59.7581 0.2325 -0.0000 -0.0000 0.0000 -3.1889 -9.1771 17.0331 -17.1519 -27.0576 -4.1562 -20.0833 -9.4496 -22.7038 0.0 0.0 0.0 7.1250 0.0 -0.0 5.5511 6.0628 4.9576
4.4335 17.8319 -20.4018 -7.3848 -8.5966 -1.0387 0.0000 0.0000 0.0000 -6.7255 -14.5899 -23.9337 0.7568 5.5561 15.5016 0.0282 5.6625 -8.8563 0.0044 0.4280 1.1760 0.0000 0.0000 0.0000 34.6144 7.4585 9.2958 -1.8586 -8.5650 24.4439 -1.3799 2.9802 -21.4319 -0.0133 -0.7445 2.0460 4.3396 1.8132 11.6785 2.2665 3.1046 0.8289 -0.5661 1.4431 -5.5773 -2.1637 -3.6038 -16.4796 0.7457 -4.5994 19.7408 0.0363 -2.2396 8.9769 -0.0000 0.0000 0.0000 2.2733 5.9353 -24.3351 14.4364 -23.3551 2.9989 29.2692 6.8912 -24.5826 0.0 0.0 0.0 -7.1250 0.0 0.0 -0.2136 57.653 0.0662 -0.0000 0.0000 0.0000 -3.3012 -9.2695 17.1274 -17.2121 -27.1366 -4.1836 -19.5758 -9.6656 -23.4421 0.0 0.0 0.0 7.1250 0.0 -0.0 5.9301 5.3795 5.3776
4.4440 17.8268 -20.2222 -7.5817 -8.7275 -0.8976 0.0000 0.0000 0.0000 -6.6581 -14.0681 -23.6089 0.6297 5.0777 14.1303 0.0327 5.1581 -8.3311 0.0220 0.9579 2.6330 0.0000 0.0000 0.0000 34.7610 7.4824 9.5781 -1.9290 -8.7167 24.9131 -1.3865 3.1384 -21.4546 -0.0151 -0.7936 2.1811 4.6067 1.8596 11.6816 2.2572 3.2046 0.7480 -0.7423 1.4829 -5.6458 -2.1248 -3.6533 -16.2467 0.7657 -4.6855 19.5948 0.0318 -2.2770 8.8852 -0.0000 -0.0000 0.0000 2.3925 6.0553 -24.4389 14.4292 -23.345 2.9961 29.0168 7.9951 -25.3285 0.0 0.0 0.0 -7.1250 0.0 0.0 -0.7311 58.4024 0.2397 -0.0000 -0.0000 0.0000 -3.3006 -9.3117 17.157 -17.2548 -27.1924 -4.2031 -19.4492 -9.8337 -23.5388 0.0 0.0 0.0 7.1250 0.0 -0.0 6.0170 5.2997 5.4664
4.4556 17.8065 -20.0446 -7.5127 -8.6407 -0.7307 0.0000 0.0000 0.0000 -6.8069 -14.0750 -23.4415 0.5410 4.7124 13.0901 0.0391 4.9115 -8.2000 0.0113 0.6859 1.8849 0.0000 0.0000 0.0000 34.6502 7.4930 9.7078 -2.0118 -8.8907 25.4539 -1.3797 3.0188 -21.4233 -0.0117 -0.6972 1.9159 4.6837 1.9340 11.6261 2.0948 3.2902 0.9348 -0.9624 1.5292 -5.3993 -1.9697 -3.7746 -17.2617 0.9351 -4.9156 19.8332 0.0124 -2.3452 9.1556 0.0000 -0.0000 0.0000 2.6577 5.3902 -25.0118 14.1264 -22.9151 2.8771 29.5028 7.4372 -25.0935 0.0 0.0 0.0 -7.1250 0.0 0.0 -0.1021 58.2629 0.0331 0.0000 -0.0000 0.0000 -3.127 -9.9844 16.7515 -17.2605 -27.1998 -4.2057 -19.9927 -9.8931 -23.2696 0.0 0.0 0.0 7.1250 0.0 -0.0 5.6562 5.4916 5.1145
4.4728 17.7596 -19.8522 -7.3422 -8.6303 -0.6490 0.0000 0.0000 0.0000 -6.8374 -14.7977 -23.5828 0.5259 4.6475 12.9059 0.0038 5.4951 -7.9549 0.0500 -1.4426 -3.9676 0.0000 0.0000 0.0000 34.3372 7.3074 9.9275 -2.0876 -9.0462 25.9398 -1.3660 3.2775 -21.2643 -0.0145 -0.7787 2.1401 4.7244 2.0839 11.5408 1.8618 3.4572 1.2870 -1.2417 1.6234 -4.9547 -1.5763 -3.8950 -19.0520 0.9106 -5.1685 20.4164 -0.1366 -2.4157 9.6776 0.0000 -0.0000 0.0000 3.04 4.4622 -25.7988 13.9494 -22.6623 2.8086 30.0848 8.7521 -28.3416 0.0 0.0 0.0 -7.1250 0.0 0.0 -0.5584 61.9166 0.2298 0.0000 -0.0000 0.0000 -2.8979 -10.8565 16.1648 -17.2955 -27.2457 -4.2218 -20.2116 -9.8411 -23.1454 0.0 0.0 0.0 7.1250 0.0 -0.0 5.5091 5.5853 4.9703
4.4879 17.7512 -19.6641 -7.2766 -8.5846 -0.7203 0.0000 0.0000 0.0000 -7.0620 -14.8914 -23.3132 0.5401 4.7088 13.0798 0.0123 5.3798 -8.0456 0.0065 -0.5224 -1.4356 0.0000 0.0000 0.0000 34.1643 7.0452 10.2419 -2.1807 -9.2327 26.5260 -1.3404 3.5244 -21.0125 -0.0097 -0.6370 1.7504 4.4470 1.8581 11.5761 2.1985 3.1853 0.4896 -0.7127 1.4695 -5.8663 -2.3348 -3.6648 -15.5639 0.8815 -4.6920 19.6555 0.1168 -2.2880 8.7908 -0.0000 0.0000 0.0000 2.2901 6.6786 -25.0168 14.0998 -22.8772 2.8668 30.4627 9.7715 -28.8742 0.0 0.0 0.0 -7.1250 0.0 0.0 -0.3099 62.5887 0.1324 -0.0000 0.0000 0.0000 -3.4876 -8.9975 17.2653 -17.4274 -27.4178 -4.2823 -20.2531 -10.1005 -23.033 0.0 0.0 0.0 7.1250 0.0 -0.0 5.4734 5.695 4.9263
4.4969 17.7783 -19.4816 -7.4359 -8.4065 -0.7468 0.0000 0.0000 0.0000 -7.3903 -14.0810 -23.5330 0.6213 5.0444 14.0353 0.0807 4.0253 -8.3156 0.0305 1.1266 3.0972 0.0000 0.0000 0.0000 34.3095 6.7903 10.6941 -2.2231 -9.3161 26.7891 -1.2701 3.5133 -20.4345 -0.0000 0.0186 -0.0511 4.6889 1.8272 11.4320 2.1991 3.1520 0.7600 -0.8307 1.4586 -5.4880 -2.2118 -3.6972 -15.9792 0.8231 -4.7424 19.5743 0.0637 -2.3058 8.8344 0.0000 0.0000 0.0000 2.373 6.0916 -24.8757 13.8458 -22.5139 2.7688 30.056 8.721 -24.5781 0.0 0.0 0.0 -7.1250 0.0 0.0 0.6798 57.8316 -0.2135 0.0000 0.0000 0.0000 -3.4434 -9.6739 16.8613 -17.2626 -27.2027 -4.2067 -20.3327 -9.7062 -23.037 0.0 0.0 0.0 7.1250 0.0 -0.0 5.4241 5.6782 4.8832
4.5154 17.7589 -19.2803 -7.4744 -8.4187 -0.9279 0.0000 0.0000 0.0000 -7.7095 -13.7089 -23.8835 0.7618 5.5741 15.5536 0.1240 3.4576 -8.8449 0.0747 1.7633 4.8520 0.0000 0.0000 0.0000 34.2954 6.5882 11.3077 -2.3014 -9.4676 27.2691 -1.2090 3.6658 -19.8938 -0.0034 0.3759 -1.0329 4.7841 1.7967 11.4004 2.2544 3.1195 0.8568 -0.8178 1.4449 -5.3677 -2.3301 -3.6011 -15.8678 0.8624 -4.5923 19.6699 0.1161 -2.2404 8.8487 0.0000 0.0000 0.0000 2.25 6.0474 -24.6316 13.6497 -22.2316 2.6941 29.8626 8.7312 -23.0811 0.0 0.0 0.0 -7.1250 0.0 0.0 0.8547 56.1468 -0.2337 0.0000 0.0000 0.0000 -3.5642 -9.8962 16.7772 -17.0819 -26.9656 -4.1244 -20.451 -9.3912 -22.7231 0.0 0.0 0.0 7.1250 0.0 -0.0 5.3227 5.985 4.7598
4.5877 17.7946 -18.9138 -7.0928 -11.5453 -1.3375 0.0000 0.0000 0.0000 -8.0231 -13.7110 -22.2317 0.9300 6.1432 17.2004 0.0847 6.8347 -11.5697 0.0827 1.8544 5.1036 0.0000 0.0000 0.0000 33.1216 7.6107 13.2302 -2.3810 -9.6182 27.7491 -1.1372 5.4827 -19.0812 -0.0039 0.4025 -1.1060 5.2967 2.8290 9.8145 1.9277 4.3847 1.5448 -1.5140 2.1128 -3.6381 -2.2507 -3.6335 -16.3650 0.8642 -4.6540 20.0963 0.0824 -2.2579 9.0849 0.0000 -0.0000 0.0000 2.2868 6.0085 -24.448 13.4967 -22.0106 2.6365 29.6756 7.5765 -21.1152 0.0 0.0 0.0 -7.1250 0.0 0.0 1.0922 53.9401 -0.2401 0.0000 -0.0000 0.0000 -3.5384 -10.0883 16.4261 -16.9329 -26.7692 -4.0571 -20.3501 -9.0091 -22.638 0.0 0.0 0.0 7.1250 0.0 -0.0 5.3784 6.0892 4.7992
4.5447 17.7593 -18.8686 -7.3265 -8.5553 -0.8545 0.0000 0.0000 0.0000 -8.6081 -12.7067 -24.5234 1.0482 6.5106 18.2735 0.2074 2.9071 -10.1817 0.0867 1.8995 5.2281 0.0000 0.0000 0.0000 33.7623 6.1386 11.5448 -2.5449 -9.9190 28.7149 -1.0492 4.3553 -18.3954 -0.0038 0.3988 -1.0957 4.7445 1.9447 11.0256 2.1532 3.2743 0.9726 -0.9070 1.5310 -5.0251 -2.1655 -3.7195 -16.6957 0.8395 -4.7875 20.3555 0.0339 -2.3127 9.2343 0.0000 -0.0000 0.0000 2.3363 5.8662 -23.9551 13.4137 -21.8904 2.6055 28.3869 8.587 -21.942 0.0 0.0 0.0 -7.1250 0.0 0.0 -0.4695 54.5826 0.1105 0.0000 -0.0000 0.0000 -3.4762 -9.999 16.0743 -16.9755 -26.8255 -4.0763 -20.0326 -8.5954 -22.6765 0.0 0.0 0.0 7.1250 0.0 -0.0 5.5805 6.0991 4.9802
4.5575 17.7455 -18.6586 -7.3252 -8.5192 -1.0447 0.0000 0.0000 0.0000 -9.0102 -12.4203 -24.2302 1.1589 6.8346 19.2263 0.1805 3.0843 -9.7739 0.0891 1.9251 5.2986 0.0000 0.0000 0.0000 33.6301 5.7141 11.7466 -2.6998 -10.1924 29.6020 -0.9584 4.4736 -17.5435 -0.0052 0.4646 -1.2765 4.7348 1.9577 11.0584 2.1824 3.2966 0.9279 -0.8767 1.5404 -5.0918 -2.2385 -3.6984 -16.4532 0.9527 -4.7767 20.6122 0.0880 -2.3015 9.2839 0.0000 0.0000 0.0000 2.2951 6.3059 -24.2916 13.2833 -21.7009 2.5571 29.4842 8.0599 -22.0417 0.0 0.0 0.0 -7.1250 0.0 0.0 0.6865 54.9219 -0.1673 0.0000 0.0000 0.0000 -3.5114 -9.5045 15.9204 -17.0488 -26.9221 -4.1094 -19.8149 -8.517 -22.8987 0.0 0.0 0.0 7.1250 0.0 -0.0 5.7353 5.9031 5.1414
4.5757 17.7337 -18.4386 -7.3323 -8.4047 -1.2664 0.0000 0.0000 0.0000 -9.5047 -12.0997 -23.7680 1.2312 7.0370 19.8249 0.1500 2.8218 -8.9210 0.0206 0.9258 2.5446 0.0000 0.0000 0.0000 33.4203 5.1236 11.7484 -2.9098 -10.5475 30.7687 -0.8769 4.6991 -16.7403 -0.0116 0.6968 -1.9149 4.8184 1.9557 11.0204 2.1867 3.2974 1.0165 -0.9153 1.5430 -4.9728 -2.1217 -3.7479 -16.4802 0.8984 -4.8647 20.6736 0.0377 -2.3388 9.3070 0.0000 -0.0000 0.0000 2.2892 6.3955 -24.3533 13.2430 -21.6422 2.5422 29.3906 8.6487 -23.5196 0.0 0.0 0.0 -7.1250 0.0 0.0 0.2204 56.5221 -0.0623 0.0000 -0.0000 0.0000 -3.5426 -9.4706 15.5379 -16.9123 -26.7421 -4.0478 -19.7879 -8.3059 -23.0754 0.0 0.0 0.0 7.1250 0.0 -0.0 5.7670 5.7247 5.1899
4.5972 17.7467 -18.2125 -7.0415 -8.2079 -1.3310 0.0000 0.0000 0.0000 -10.4213 -11.4264 -23.5876 1.2907 7.1986 20.3051 0.1856 1.2915 -8.7173 0.0105 -0.6621 -1.8194 0.0000 0.0000 0.0000 32.6954 4.2890 11.5460 -3.0935 -10.8448 31.7583 -0.7659 5.1648 -15.6006 -0.0278 1.0764 -2.9591 4.6761 1.9510 10.7001 2.0741 3.2489 0.9873 -0.9338 1.5248 -4.8280 -1.9252 -3.7882 -16.1312 0.7655 -4.9478 20.6054 -0.0427 -2.3802 9.2111 -0.0000 -0.0000 0.0000 2.3548 6.4663 -23.4809 13.3482 -21.7953 2.5811 26.7333 12.5021 -27.7589 0.0 0.0 0.0 -7.1250 0.0 0.0 -4.3039 60.44 1.6222 -0.0000 -0.0000 0.0000 -3.5058 -9.1784 15.3052 -16.8410 -26.6477 -4.0158 -19.8772 -8.0988 -22.9258 0.0 0.0 0.0 7.1250 0.0 -0.0 5.6986 5.8654 5.1124
4.6148 17.7555 -17.9892 -6.8041 -8.0120 -1.4289 0.0000 0.0000 0.0000 -11.0269 -11.0319 -23.3639 1.3190 7.2738 20.5292 0.0846 1.8829 -6.5268 0.3489 3.7953 10.5015 0.0000 0.0000 0.0000 32.1278 3.5816 11.3724 -3.3072 -11.1764 32.8773 -0.6415 5.3427 -14.2637 -0.0476 1.4087 -3.8742 4.4611 1.8755 10.5476 2.0665 3.1279 0.7073 -0.8048 1.4618 -5.0540 -2.0679 -3.7245 -15.2483 0.7842 -4.8505 20.7985 0.0150 -2.3500 9.1187 0.0000 -0.0000 0.0000 2.2587 7.3787 -24.1588 13.1124 -21.4517 2.4943 29.8048 7.8549 -20.6 0.0 0.0 0.0 -7.1250 0.0 0.0 1.3314 53.3959 -0.275 0.0000 -0.0000 0.0000 -3.5482 -8.312 15.3221 -16.8373 -26.6428 -4.0141 -19.9187 -7.9063 -23.0271 0.0 0.0 0.0 7.1250 0.0 -0.0 5.6814 5.7541 5.1089
